<svg id="Capa_1" enable-background="new 0 0 512 512" height="512" viewBox="0 0 512 512" width="512" xmlns="http://www.w3.org/2000/svg"><g><g><circle cx="256" cy="256" fill="#ffb54c" r="256"/></g><path d="m363.867 204.216-58.217-58.217-35.912 35.912-65.326-65.326-72.11 42.505 41.265 41.265-67.882 67.882 41.617 41.617-30.659 30.659 42.454 42.454-9.785 12.447 116.384 116.384c120.764-4.5 220.129-92.637 241.865-208.188l-121.544-121.543z" fill="#ff9e00"/><g><path d="m349.827 167.076c-10.451 0-20.166 3.14-28.266 8.517-3.873-24.427-25.022-43.103-50.539-43.103-15.329 0-29.073 6.748-38.453 17.425-2.355-.332-4.758-.515-7.204-.515-17.841 0-33.541 9.134-42.702 22.975-2.759-.46-5.588-.712-8.477-.712-28.266 0-51.179 22.914-51.179 51.179v55.267h278v-59.855c0-28.264-22.914-51.178-51.18-51.178z" fill="#91bd00"/><path d="m349.827 167.076c-10.451 0-20.166 3.14-28.266 8.517-3.873-24.427-25.022-43.103-50.539-43.103-3.078 0-6.088.284-9.016.806v144.814h139v-59.854c.001-28.266-22.913-51.18-51.179-51.18z" fill="#688b13"/><path d="m227.567 163.498h18.093v18.093h-18.093z" fill="#c40048" transform="matrix(.903 .431 -.431 .903 97.352 -85.067)"/><path d="m157.328 199.902h18.093v18.093h-18.093z" fill="#c40048" transform="matrix(.362 -.932 .932 .362 -88.587 288.54)"/><path d="m349.662 178.516h18.093v18.093h-18.093z" fill="#a2003c" transform="matrix(.989 -.146 .146 .989 -23.491 54.24)"/><path d="m291.577 191.173h18.093v18.093h-18.093z" fill="#a2003c" transform="matrix(.803 .597 -.597 .803 178.808 -139.815)"/><path d="m116.644 233.349h290.726v107.165h-290.726z" fill="#885140"/><path d="m105.685 232h312.643v36.238h-312.643z" fill="#b1705b"/><path d="m262.007 233.349h145.363v107.165h-145.363z" fill="#4f2f25"/><path d="m262.007 232h156.321v36.238h-156.321z" fill="#885140"/><path d="m283.271 149.711h10v27.333h-10z" fill="#91bd00" transform="matrix(.5 .866 -.866 .5 285.625 -167.961)"/><path d="m339.184 195.282h10v27.333h-10z" fill="#91bd00" transform="matrix(.121 -.993 .993 .121 95.031 525.248)"/><path d="m231.614 199.595h10v27.333h-10z" fill="#b7db38" transform="matrix(.5 .866 -.866 .5 302.997 -98.283)"/><path d="m200.367 188.326h10v27.333h-10z" fill="#b7db38" transform="matrix(.887 -.462 .462 .887 -70.112 117.803)"/><g><path d="m263.916 338.113-114.604 57.302v-114.604z" fill="#ffe906"/><path d="m279.993 366.637-121.555-40.519 81.037-81.037z" fill="#fc0"/></g><path d="m208.463 175.218-4.051-58.632-72.11 42.505 49.101 31.787c6.063-9.124 16.111-14.95 27.06-15.66z" fill="#ffe906"/></g></g></svg>